<svg xmlns="http://www.w3.org/2000/svg" width="960" height="112" viewBox="0 0 240 28" shape-rendering="crispEdges"><rect width="240" height="28" fill="#08070a"/><g fill="#33080f"><rect x="0" y="0" width="240" height="1"/><rect x="28" y="12" width="4" height="1"/><rect x="207" y="12" width="4" height="1"/><rect x="28" y="13" width="1" height="3"/><rect x="30" y="13" width="2" height="1"/><rect x="207" y="13" width="1" height="1"/><rect x="209" y="13" width="2" height="1"/><rect x="29" y="14" width="1" height="3"/><rect x="211" y="14" width="1" height="2"/><rect x="30" y="15" width="3" height="1"/><rect x="207" y="15" width="2" height="1"/><rect x="210" y="15" width="1" height="1"/><rect x="30" y="16" width="1" height="1"/><rect x="209" y="16" width="1" height="1"/><rect x="33" y="17" width="4" height="1"/><rect x="44" y="17" width="4" height="1"/><rect x="55" y="17" width="4" height="1"/><rect x="66" y="17" width="4" height="1"/><rect x="77" y="17" width="4" height="1"/><rect x="88" y="17" width="2" height="1"/><rect x="91" y="17" width="1" height="1"/><rect x="110" y="17" width="1" height="1"/><rect x="112" y="17" width="2" height="1"/><rect x="122" y="17" width="2" height="1"/><rect x="132" y="17" width="1" height="1"/><rect x="134" y="17" width="1" height="1"/><rect x="143" y="17" width="3" height="1"/><rect x="154" y="17" width="3" height="1"/><rect x="165" y="17" width="3" height="1"/><rect x="176" y="17" width="3" height="1"/><rect x="187" y="17" width="3" height="1"/><rect x="197" y="17" width="4" height="1"/><rect x="208" y="17" width="1" height="1"/><rect x="37" y="18" width="1" height="1"/><rect x="43" y="18" width="1" height="1"/><rect x="48" y="18" width="1" height="1"/><rect x="54" y="18" width="1" height="1"/><rect x="59" y="18" width="1" height="1"/><rect x="65" y="18" width="1" height="1"/><rect x="70" y="18" width="1" height="1"/><rect x="76" y="18" width="1" height="1"/><rect x="81" y="18" width="1" height="1"/><rect x="87" y="18" width="1" height="1"/><rect x="92" y="18" width="1" height="1"/><rect x="98" y="18" width="1" height="1"/><rect x="103" y="18" width="1" height="1"/><rect x="109" y="18" width="1" height="1"/><rect x="114" y="18" width="1" height="1"/><rect x="120" y="18" width="1" height="1"/><rect x="131" y="18" width="1" height="1"/><rect x="135" y="18" width="1" height="1"/><rect x="142" y="18" width="1" height="1"/><rect x="146" y="18" width="1" height="1"/><rect x="153" y="18" width="1" height="1"/><rect x="157" y="18" width="1" height="1"/><rect x="164" y="18" width="1" height="1"/><rect x="168" y="18" width="1" height="1"/><rect x="175" y="18" width="1" height="1"/><rect x="179" y="18" width="1" height="1"/><rect x="186" y="18" width="1" height="1"/><rect x="190" y="18" width="1" height="1"/><rect x="201" y="18" width="1" height="1"/><rect x="32" y="19" width="1" height="1"/><rect x="38" y="19" width="1" height="1"/><rect x="49" y="19" width="1" height="1"/><rect x="53" y="19" width="1" height="1"/><rect x="60" y="19" width="1" height="1"/><rect x="64" y="19" width="1" height="1"/><rect x="71" y="19" width="1" height="1"/><rect x="75" y="19" width="1" height="1"/><rect x="82" y="19" width="1" height="1"/><rect x="86" y="19" width="1" height="1"/><rect x="93" y="19" width="1" height="1"/><rect x="97" y="19" width="1" height="1"/><rect x="104" y="19" width="1" height="1"/><rect x="108" y="19" width="1" height="1"/><rect x="119" y="19" width="1" height="1"/><rect x="125" y="19" width="1" height="1"/><rect x="130" y="19" width="1" height="1"/><rect x="136" y="19" width="1" height="1"/><rect x="141" y="19" width="1" height="1"/><rect x="147" y="19" width="1" height="1"/><rect x="152" y="19" width="1" height="1"/><rect x="158" y="19" width="1" height="1"/><rect x="163" y="19" width="1" height="1"/><rect x="169" y="19" width="1" height="1"/><rect x="174" y="19" width="1" height="1"/><rect x="180" y="19" width="1" height="1"/><rect x="185" y="19" width="1" height="1"/><rect x="191" y="19" width="1" height="1"/><rect x="196" y="19" width="1" height="1"/><rect x="202" y="19" width="1" height="1"/><rect x="207" y="19" width="1" height="1"/><rect x="39" y="20" width="4" height="1"/><rect x="50" y="20" width="3" height="1"/><rect x="61" y="20" width="3" height="1"/><rect x="72" y="20" width="3" height="1"/><rect x="83" y="20" width="3" height="1"/><rect x="94" y="20" width="3" height="1"/><rect x="105" y="20" width="3" height="1"/><rect x="115" y="20" width="4" height="1"/><rect x="126" y="20" width="4" height="1"/><rect x="137" y="20" width="4" height="1"/><rect x="148" y="20" width="4" height="1"/><rect x="159" y="20" width="4" height="1"/><rect x="170" y="20" width="4" height="1"/><rect x="181" y="20" width="4" height="1"/><rect x="192" y="20" width="4" height="1"/><rect x="203" y="20" width="4" height="1"/><rect x="0" y="27" width="240" height="1"/></g><g fill="#2a2730"><rect x="0" y="1" width="240" height="1"/><rect x="223" y="6" width="3" height="1"/><rect x="221" y="7" width="3" height="1"/><rect x="225" y="7" width="3" height="1"/><rect x="12" y="8" width="4" height="1"/><rect x="221" y="8" width="1" height="1"/><rect x="227" y="8" width="2" height="1"/><rect x="12" y="9" width="1" height="2"/><rect x="15" y="9" width="2" height="1"/><rect x="220" y="9" width="1" height="3"/><rect x="228" y="9" width="1" height="2"/><rect x="11" y="10" width="1" height="3"/><rect x="16" y="10" width="1" height="9"/><rect x="224" y="10" width="2" height="1"/><rect x="15" y="11" width="1" height="2"/><rect x="19" y="11" width="2" height="1"/><rect x="221" y="11" width="1" height="6"/><rect x="225" y="11" width="1" height="2"/><rect x="229" y="11" width="1" height="1"/><rect x="14" y="12" width="1" height="4"/><rect x="19" y="12" width="1" height="5"/><rect x="224" y="12" width="1" height="4"/><rect x="12" y="13" width="2" height="2"/><rect x="17" y="13" width="2" height="2"/><rect x="222" y="13" width="2" height="2"/><rect x="6" y="14" width="1" height="6"/><rect x="9" y="14" width="3" height="1"/><rect x="15" y="14" width="1" height="3"/><rect x="20" y="14" width="7" height="1"/><rect x="48" y="14" width="39" height="1"/><rect x="154" y="14" width="38" height="1"/><rect x="213" y="14" width="8" height="1"/><rect x="225" y="14" width="6" height="1"/><rect x="233" y="14" width="1" height="6"/><rect x="11" y="15" width="1" height="3"/><rect x="225" y="15" width="1" height="3"/><rect x="3" y="16" width="1" height="4"/><rect x="9" y="16" width="1" height="2"/><rect x="220" y="16" width="1" height="3"/><rect x="230" y="16" width="1" height="4"/><rect x="236" y="16" width="1" height="2"/><rect x="2" y="17" width="1" height="1"/><rect x="5" y="17" width="1" height="3"/><rect x="7" y="17" width="2" height="3"/><rect x="12" y="17" width="1" height="3"/><rect x="20" y="17" width="1" height="1"/><rect x="224" y="17" width="1" height="1"/><rect x="228" y="17" width="2" height="1"/><rect x="232" y="17" width="1" height="3"/><rect x="234" y="17" width="2" height="3"/><rect x="0" y="18" width="1" height="2"/><rect x="4" y="18" width="1" height="2"/><rect x="15" y="18" width="1" height="2"/><rect x="226" y="18" width="1" height="3"/><rect x="228" y="18" width="1" height="2"/><rect x="231" y="18" width="1" height="2"/><rect x="239" y="18" width="1" height="2"/><rect x="1" y="19" width="2" height="1"/><rect x="9" y="19" width="3" height="1"/><rect x="13" y="19" width="2" height="1"/><rect x="221" y="19" width="1" height="2"/><rect x="227" y="19" width="1" height="2"/><rect x="229" y="19" width="1" height="1"/><rect x="236" y="19" width="3" height="1"/><rect x="222" y="20" width="2" height="1"/><rect x="225" y="20" width="1" height="2"/><rect x="4" y="21" width="5" height="1"/><rect x="223" y="21" width="2" height="1"/><rect x="231" y="21" width="5" height="1"/><rect x="0" y="26" width="240" height="1"/></g><g fill="#15131a"><rect x="0" y="2" width="240" height="1"/><rect x="0" y="25" width="240" height="1"/></g><g fill="#5a0d1c"><rect x="214" y="10" width="5" height="1"/><rect x="213" y="11" width="2" height="1"/><rect x="218" y="11" width="2" height="1"/><rect x="20" y="12" width="5" height="1"/><rect x="213" y="12" width="1" height="2"/><rect x="219" y="12" width="1" height="2"/><rect x="20" y="13" width="1" height="1"/><rect x="24" y="13" width="1" height="1"/><rect x="29" y="13" width="1" height="1"/><rect x="208" y="13" width="1" height="2"/><rect x="216" y="13" width="2" height="1"/><rect x="220" y="13" width="1" height="1"/><rect x="30" y="14" width="18" height="1"/><rect x="192" y="14" width="16" height="1"/><rect x="209" y="14" width="2" height="1"/><rect x="20" y="15" width="1" height="2"/><rect x="26" y="15" width="1" height="2"/><rect x="45" y="15" width="1" height="1"/><rect x="56" y="15" width="1" height="1"/><rect x="67" y="15" width="1" height="1"/><rect x="78" y="15" width="1" height="1"/><rect x="100" y="15" width="1" height="1"/><rect x="122" y="15" width="1" height="1"/><rect x="144" y="15" width="1" height="1"/><rect x="155" y="15" width="1" height="1"/><rect x="166" y="15" width="1" height="1"/><rect x="177" y="15" width="1" height="1"/><rect x="188" y="15" width="1" height="1"/><rect x="198" y="15" width="1" height="1"/><rect x="209" y="15" width="1" height="1"/><rect x="213" y="15" width="5" height="1"/><rect x="21" y="16" width="1" height="2"/><rect x="25" y="16" width="1" height="2"/><rect x="34" y="16" width="1" height="1"/><rect x="44" y="16" width="1" height="1"/><rect x="55" y="16" width="1" height="1"/><rect x="66" y="16" width="1" height="1"/><rect x="77" y="16" width="1" height="1"/><rect x="88" y="16" width="1" height="1"/><rect x="99" y="16" width="1" height="1"/><rect x="110" y="16" width="1" height="1"/><rect x="132" y="16" width="1" height="1"/><rect x="143" y="16" width="1" height="1"/><rect x="154" y="16" width="1" height="1"/><rect x="165" y="16" width="1" height="1"/><rect x="176" y="16" width="1" height="1"/><rect x="187" y="16" width="1" height="1"/><rect x="197" y="16" width="1" height="1"/><rect x="208" y="16" width="1" height="1"/><rect x="22" y="17" width="3" height="1"/><rect x="43" y="17" width="1" height="1"/><rect x="54" y="17" width="1" height="1"/><rect x="65" y="17" width="1" height="1"/><rect x="76" y="17" width="1" height="1"/><rect x="87" y="17" width="1" height="1"/><rect x="98" y="17" width="1" height="1"/><rect x="109" y="17" width="1" height="1"/><rect x="120" y="17" width="1" height="1"/><rect x="131" y="17" width="1" height="1"/><rect x="142" y="17" width="1" height="1"/><rect x="153" y="17" width="1" height="1"/><rect x="164" y="17" width="1" height="1"/><rect x="175" y="17" width="1" height="1"/><rect x="186" y="17" width="1" height="1"/><rect x="32" y="18" width="1" height="1"/><rect x="39" y="21" width="1" height="1"/><rect x="50" y="21" width="1" height="1"/><rect x="61" y="21" width="1" height="1"/><rect x="72" y="21" width="1" height="1"/><rect x="83" y="21" width="1" height="1"/><rect x="94" y="21" width="1" height="1"/><rect x="105" y="21" width="1" height="1"/><rect x="116" y="21" width="1" height="1"/><rect x="127" y="21" width="1" height="1"/><rect x="138" y="21" width="1" height="1"/><rect x="149" y="21" width="1" height="1"/><rect x="160" y="21" width="1" height="1"/><rect x="171" y="21" width="1" height="1"/><rect x="182" y="21" width="1" height="1"/><rect x="193" y="21" width="1" height="1"/><rect x="204" y="21" width="1" height="1"/><rect x="38" y="22" width="1" height="1"/><rect x="49" y="22" width="1" height="1"/><rect x="60" y="22" width="1" height="1"/><rect x="71" y="22" width="1" height="1"/><rect x="82" y="22" width="1" height="1"/><rect x="93" y="22" width="1" height="1"/><rect x="104" y="22" width="1" height="1"/><rect x="115" y="22" width="1" height="1"/><rect x="126" y="22" width="1" height="1"/><rect x="137" y="22" width="1" height="1"/><rect x="148" y="22" width="1" height="1"/><rect x="159" y="22" width="1" height="1"/><rect x="170" y="22" width="1" height="1"/><rect x="181" y="22" width="1" height="1"/><rect x="192" y="22" width="1" height="1"/><rect x="203" y="22" width="1" height="1"/><rect x="37" y="23" width="1" height="1"/><rect x="48" y="23" width="1" height="1"/><rect x="59" y="23" width="1" height="1"/><rect x="70" y="23" width="1" height="1"/><rect x="81" y="23" width="1" height="1"/><rect x="92" y="23" width="1" height="1"/><rect x="103" y="23" width="1" height="1"/><rect x="114" y="23" width="1" height="1"/><rect x="125" y="23" width="1" height="1"/><rect x="136" y="23" width="1" height="1"/><rect x="147" y="23" width="1" height="1"/><rect x="158" y="23" width="1" height="1"/><rect x="169" y="23" width="1" height="1"/><rect x="180" y="23" width="1" height="1"/><rect x="191" y="23" width="1" height="1"/><rect x="202" y="23" width="1" height="1"/></g><g fill="#b81d38"><rect x="28" y="11" width="4" height="1"/><rect x="87" y="11" width="7" height="1"/><rect x="147" y="11" width="7" height="1"/><rect x="207" y="11" width="4" height="1"/><rect x="6" y="12" width="1" height="2"/><rect x="27" y="12" width="1" height="4"/><rect x="32" y="12" width="1" height="2"/><rect x="87" y="12" width="1" height="3"/><rect x="93" y="12" width="1" height="3"/><rect x="147" y="12" width="1" height="3"/><rect x="153" y="12" width="1" height="3"/><rect x="206" y="12" width="1" height="2"/><rect x="211" y="12" width="1" height="2"/><rect x="233" y="12" width="1" height="2"/><rect x="212" y="14" width="1" height="1"/><rect x="88" y="15" width="1" height="1"/><rect x="92" y="15" width="1" height="1"/><rect x="148" y="15" width="1" height="1"/><rect x="152" y="15" width="1" height="1"/><rect x="206" y="15" width="1" height="1"/><rect x="28" y="16" width="1" height="1"/><rect x="31" y="16" width="1" height="1"/><rect x="89" y="16" width="1" height="1"/><rect x="91" y="16" width="1" height="1"/><rect x="149" y="16" width="1" height="1"/><rect x="151" y="16" width="1" height="1"/><rect x="207" y="16" width="1" height="1"/><rect x="210" y="16" width="1" height="1"/><rect x="90" y="17" width="1" height="1"/><rect x="150" y="17" width="1" height="1"/><rect x="3" y="20" width="7" height="1"/><rect x="230" y="20" width="7" height="1"/></g><g fill="#e9e3d7"><rect x="100" y="11" width="4" height="1"/><rect x="105" y="11" width="1" height="6"/><rect x="109" y="11" width="1" height="6"/><rect x="111" y="11" width="1" height="7"/><rect x="115" y="11" width="1" height="7"/><rect x="117" y="11" width="1" height="7"/><rect x="121" y="11" width="1" height="7"/><rect x="124" y="11" width="3" height="1"/><rect x="129" y="11" width="1" height="7"/><rect x="133" y="11" width="1" height="7"/><rect x="136" y="11" width="4" height="1"/><rect x="99" y="12" width="1" height="2"/><rect x="112" y="12" width="1" height="1"/><rect x="114" y="12" width="1" height="1"/><rect x="118" y="12" width="1" height="1"/><rect x="120" y="12" width="1" height="1"/><rect x="123" y="12" width="1" height="5"/><rect x="127" y="12" width="1" height="5"/><rect x="130" y="12" width="1" height="1"/><rect x="135" y="12" width="1" height="2"/><rect x="113" y="13" width="1" height="2"/><rect x="119" y="13" width="1" height="2"/><rect x="131" y="13" width="1" height="1"/><rect x="100" y="14" width="3" height="1"/><rect x="132" y="14" width="1" height="1"/><rect x="136" y="14" width="3" height="1"/><rect x="103" y="15" width="1" height="2"/><rect x="139" y="15" width="1" height="2"/><rect x="99" y="17" width="4" height="1"/><rect x="106" y="17" width="3" height="1"/><rect x="124" y="17" width="3" height="1"/><rect x="135" y="17" width="4" height="1"/></g><g fill="#8c1428"><rect x="88" y="12" width="5" height="3"/><rect x="148" y="12" width="5" height="3"/><rect x="89" y="15" width="3" height="1"/><rect x="149" y="15" width="3" height="1"/><rect x="90" y="16" width="1" height="1"/><rect x="150" y="16" width="1" height="1"/></g></svg>